# xmcd CD database file
#
# Track frame offsets:
#	150
#	20984
#	43355
#	67778
#
# Disc length: 1254 seconds
#
# Revision: 0
# Processed by: cddbd v1.5.1PL0 Copyright (c) Steve Scherf et al.
# Submitted via: CDex 1.50beta8
#
DISCID=3404e404
DTITLE=ドラマCD - 「まぶらほ」ツインドラゴンスペシャルドラマCD
DYEAR=2004
DGENRE=Anime
TTITLE0=We'd get there someday〜3人娘バージョン〜
TTITLE1=オリジナルドラマ夕菜編「またせちゃった…」
TTITLE2=オリジナルドラマ玖里子編「わすれちゃった…」
TTITLE3=オリジナルドラマ凛編「てつだわせちゃった…」
EXTD=YEAR: 2004
EXTT0=
EXTT1=
EXTT2=
EXTT3=
PLAYORDER=
